<?xml version="1.0" standalone="no"?>
<!DOCTYPE svg PUBLIC "-//W3C//DTD SVG 20010904//EN"
 "http://www.w3.org/TR/2001/REC-SVG-20010904/DTD/svg10.dtd">
<svg fill="transparent" version="1.0" xmlns="http://www.w3.org/2000/svg"
 width="200px" height="200px" viewBox="0 0 2000.000000 2000.000000"
 preserveAspectRatio="xMidYMid meet" >

<g transform="translate(0.000000,2000.000000) scale(0.100000,-0.100000)"
fill="transparent" stroke="">
<path d="M0 10000 l0 -10000 10000 0 10000 0 0 10000 0 10000 -10000 0 -10000
0 0 -10000z m11594 3508 c14 -55 10 -60 -46 -53 -29 3 -64 8 -78 10 -14 3 -54
7 -90 10 -36 3 -146 14 -245 25 -99 11 -198 21 -220 23 -22 2 120 4 316 5
l357 2 6 -22z m-718 -273 c130 -9 192 -16 221 -26 18 -6 37 -8 43 -4 6 3 70
-1 143 -9 170 -20 327 -37 352 -39 17 -2 23 -17 40 -116 l20 -114 129 -39
c242 -73 506 -200 692 -333 20 -15 34 -6 256 148 l236 164 256 -256 c141 -141
256 -259 256 -263 0 -4 -73 -112 -163 -240 -90 -128 -166 -238 -169 -244 -4
-6 33 -89 81 -185 111 -221 167 -389 226 -674 4 -19 27 -25 227 -59 123 -20
250 -43 283 -50 l60 -12 -2 -104 c-1 -99 -2 -104 -22 -103 -12 0 -243 1 -515
2 l-494 1 -7 68 c-33 323 -114 574 -267 830 -292 486 -781 811 -1351 898 -135
21 -400 21 -536 0 -504 -77 -949 -344 -1250 -748 l-69 -94 -78 7 c-44 4 -168
11 -276 15 -109 4 -198 9 -198 11 0 10 110 198 152 261 l50 74 -36 51 c-19 29
-94 135 -165 237 l-131 185 218 218 c119 120 238 236 263 257 l45 39 248 -174
248 -173 71 40 c215 119 457 209 694 258 53 10 98 21 101 24 7 7 54 254 53
281 0 14 2 16 8 6 5 -7 30 -14 57 -16z m-1981 -426 l-90 -91 -215 6 c-118 4
-411 13 -650 21 -239 8 -590 19 -780 25 -190 6 -383 12 -430 15 -47 2 -168 7
-270 11 -102 3 -187 8 -189 10 -2 2 45 4 105 4 60 1 132 3 159 5 45 4 393 17
840 30 94 3 366 12 605 20 239 8 554 17 700 21 146 4 267 8 269 10 2 2 11 4
20 4 9 0 -24 -40 -74 -91z m-230 -406 c3 -14 24 -52 46 -84 21 -32 39 -59 39
-61 0 -3 -48 -3 -730 12 -267 5 -604 12 -750 15 -146 3 -326 7 -400 10 -200 7
-1432 39 -1800 46 -160 4 4 10 785 29 2018 50 2711 66 2762 62 35 -3 42 -8 48
-29z m207 -509 l-37 -66 -190 6 c-464 15 -1458 56 -1453 61 2 1 80 6 173 9 94
4 391 15 660 26 572 23 623 25 772 28 l112 2 -37 -66z m2503 -384 c91 -24 221
-83 292 -131 69 -47 188 -164 238 -234 82 -115 149 -283 162 -407 l6 -59 -148
7 -149 7 -102 77 c-287 219 -706 463 -996 580 -31 13 -55 27 -52 31 3 5 33 24
67 43 76 43 219 92 307 105 99 15 282 6 375 -19z m-4405 -36 c-74 -13 -196
-36 -270 -50 -126 -24 -147 -25 -320 -19 -102 3 -410 12 -684 20 -274 8 -500
16 -502 18 -2 2 286 11 639 21 971 26 1042 28 1046 32 2 2 54 4 115 3 l111 -1
-135 -24z m2560 -59 c272 -29 550 -89 797 -171 434 -144 922 -411 1285 -702
l87 -69 1168 -7 c642 -4 1247 -12 1343 -17 293 -16 522 -56 724 -125 266 -92
689 -339 1016 -593 l85 -66 -198 -3 -197 -2 -96 56 c-292 172 -639 288 -966
323 -124 14 -416 14 -533 1 -264 -31 -494 -112 -650 -230 -60 -46 -65 -47 -44
-19 103 145 333 294 589 381 69 23 99 37 75 34 -22 -3 -96 -12 -165 -21 -376
-48 -484 -54 -835 -50 -187 2 -455 9 -595 14 -140 6 -322 13 -405 16 -82 3
-202 7 -265 10 -214 9 -354 15 -500 20 -80 3 -176 7 -215 10 -38 3 -155 7
-260 11 -122 4 -194 10 -202 17 -7 7 -46 62 -88 122 l-76 110 228 5 227 5 -94
65 c-538 371 -1030 575 -1585 656 -152 23 -681 26 -880 6 -274 -28 -523 -71
-770 -133 -135 -34 -445 -135 -469 -152 -14 -10 -1 -32 94 -156 60 -80 108
-146 106 -148 -2 -2 -35 5 -72 16 -183 55 -471 84 -829 84 -389 1 -616 -25
-921 -104 -360 -93 -823 -165 -1259 -197 l-100 -7 -3 -180 -4 -180 -64 225
c-35 124 -64 231 -64 238 0 7 12 12 29 12 16 0 91 11 166 25 319 59 714 163
1115 293 294 96 450 140 760 216 813 199 1857 353 2570 380 216 8 799 -4 940
-19z m543 -679 c32 -14 125 -102 116 -110 -10 -10 -236 -28 -283 -22 -26 3
-69 17 -95 32 -56 33 -137 94 -125 94 39 1 160 13 163 16 12 11 195 2 224 -10z
m-1443 -216 c381 -42 392 -43 1040 -47 l645 -5 53 -86 c29 -48 62 -102 74
-121 l21 -33 -94 6 c-52 3 -186 10 -299 16 -324 16 -384 19 -585 35 -198 16
-583 99 -820 176 -82 27 -163 56 -180 64 l-30 15 40 -5 c22 -2 83 -9 135 -15z
m-1981 -186 c275 -64 501 -236 646 -490 57 -99 57 -113 2 -37 -164 221 -406
372 -692 428 -128 25 -333 17 -470 -19 -236 -62 -468 -219 -606 -411 -18 -25
-34 -43 -37 -41 -7 7 61 125 112 193 197 268 533 425 866 406 41 -3 122 -16
179 -29z m1353 -1104 c167 -19 389 -104 387 -150 0 -8 -21 -91 -47 -185 l-47
-170 -217 -3 -218 -2 0 92 c0 161 -29 217 -116 225 -165 16 -300 -215 -197
-337 39 -47 108 -77 268 -115 80 -19 179 -49 221 -66 182 -76 265 -225 251
-452 -9 -143 -44 -231 -132 -325 -111 -120 -223 -170 -490 -217 -16 -3 -95 -8
-175 -11 -242 -10 -445 20 -591 87 -113 52 -110 40 -59 249 l44 180 233 0 232
0 -2 -92 c-2 -155 48 -228 156 -228 114 0 204 95 215 227 4 53 1 68 -21 105
-35 60 -102 96 -292 158 -88 29 -186 66 -218 82 -68 36 -125 96 -163 170 -53
103 -43 315 21 423 55 95 158 186 280 247 100 51 302 101 440 110 22 2 61 4
88 6 26 2 93 -2 149 -8z m6073 -30 c107 -34 164 -67 231 -134 69 -69 113 -152
146 -273 29 -111 29 -327 -1 -470 -57 -272 -180 -503 -339 -636 -82 -69 -198
-124 -317 -149 -134 -29 -456 -31 -580 -4 -225 49 -359 180 -412 403 -22 97
-25 378 -4 493 46 256 177 490 347 619 89 67 210 126 312 152 165 41 483 41
617 -1z m-3053 16 c127 -25 298 -98 298 -129 0 -7 -21 -92 -47 -189 l-46 -178
-217 0 -216 0 0 98 c1 162 -35 222 -134 222 -128 0 -245 -159 -211 -287 22
-81 87 -117 312 -173 93 -23 193 -55 234 -75 155 -75 225 -198 225 -395 -1
-316 -196 -514 -570 -575 -344 -56 -754 -5 -898 112 l-23 19 36 145 c20 79 40
161 46 182 l10 37 229 0 230 0 0 -97 c0 -157 46 -223 156 -223 103 0 190 79
214 194 21 102 -20 178 -122 228 -29 14 -114 45 -188 68 -170 54 -213 72 -273
118 -125 95 -174 260 -132 440 19 79 43 127 96 188 121 140 296 228 539 269
104 18 361 18 452 1z m-6252 -95 c0 -55 -4 -91 -11 -93 -9 -3 -119 -478 -119
-515 0 -8 22 -13 63 -15 l62 -3 3 -90 3 -90 -90 3 -89 3 -11 -53 c-6 -29 -35
-169 -64 -310 l-53 -258 80 0 c93 0 147 21 196 77 l31 35 -2 -134 -2 -135
-246 -6 c-135 -4 -340 -7 -455 -7 l-208 0 5 23 c4 12 22 96 41 187 103 490
307 1447 311 1458 3 9 68 12 280 12 l275 0 0 -89z m2200 82 c0 -5 -4 -24 -9
-43 -5 -19 -15 -61 -21 -92 l-11 -58 -269 0 c-247 0 -269 -1 -274 -17 -6 -19
-106 -481 -106 -489 0 -2 102 -4 226 -4 210 0 225 -1 220 -17 -2 -10 -12 -55
-22 -100 l-17 -83 -226 0 -226 0 -58 -267 c-31 -148 -57 -274 -57 -280 0 -10
60 -13 266 -13 l265 0 -6 -42 c-4 -24 -12 -70 -19 -103 l-12 -60 -549 3 c-302
1 -551 4 -553 7 -3 3 329 1593 344 1648 5 16 40 17 560 17 305 0 554 -3 554
-7z m3017 -15 c-4 -12 -14 -57 -23 -100 l-17 -78 -213 0 c-118 0 -214 -2 -214
-5 0 -6 -163 -774 -190 -895 -10 -47 -42 -196 -71 -332 l-53 -248 -283 0
c-315 0 -292 -6 -273 73 5 23 32 148 59 277 116 547 233 1096 237 1113 5 16
-9 17 -206 17 l-210 0 6 28 c14 60 35 148 39 160 3 9 155 12 711 12 l706 0 -5
-22z m2933 10 c0 -11 -7 -44 -35 -165 -5 -22 -7 -23 -218 -25 l-212 -3 -27
-125 c-15 -69 -84 -390 -153 -715 -69 -324 -129 -600 -132 -612 l-5 -23 -284
0 c-156 0 -284 2 -284 4 0 3 70 332 155 732 85 401 155 732 155 736 0 4 -94 8
-209 8 l-209 0 25 100 25 100 704 0 c557 0 704 -3 704 -12z m2868 -11 c139
-31 230 -84 287 -170 52 -78 69 -159 62 -297 -17 -378 -252 -594 -687 -630
-63 -5 -149 -10 -190 -10 l-75 0 -29 -132 c-15 -73 -41 -197 -58 -275 l-31
-143 -283 0 c-259 0 -284 1 -284 17 0 12 319 1527 345 1641 l6 24 432 -5 c343
-4 447 -8 505 -20z m-10408 -117 c52 -52 80 -109 91 -184 21 -148 -38 -290
-156 -375 l-44 -32 -3 335 -3 334 38 -19 c21 -11 55 -37 77 -59z m-53 -743
c58 -63 83 -137 83 -246 0 -131 -38 -237 -111 -314 l-29 -30 0 307 c0 243 -3
306 -12 300 -9 -5 -9 -2 1 9 19 24 24 22 68 -26z m2907 -1303 l47 -16 -6 -42
c-12 -76 -12 -76 -66 -76 l-49 0 0 50 c0 63 -21 77 -56 36 -42 -48 -77 -222
-55 -265 22 -41 72 -17 86 42 6 24 5 27 -19 27 -28 0 -29 1 -20 24 5 13 22 16
86 16 60 0 79 -3 75 -12 -2 -7 -10 -46 -17 -85 l-13 -73 -38 0 c-24 0 -39 5
-43 15 -5 13 -10 12 -38 -5 -60 -36 -142 -17 -178 42 -27 44 -27 156 -1 214
21 46 73 92 123 111 47 17 127 15 182 -3z m816 -2 c68 -34 90 -138 50 -245
-35 -94 -102 -137 -213 -137 -64 0 -112 22 -137 62 -18 28 -21 45 -17 108 6
114 50 186 134 215 54 20 141 18 183 -3z m2744 4 c56 -23 76 -59 76 -136 0
-123 -53 -216 -135 -239 -60 -16 -145 -14 -185 7 -53 26 -72 72 -67 158 10
147 86 222 225 224 29 0 67 -6 86 -14z m374 5 c32 -1 49 -7 67 -26 44 -43 27
-134 -29 -165 -14 -7 -26 -17 -26 -20 0 -4 14 -40 30 -80 42 -102 42 -101 -37
-98 l-67 3 -27 85 -26 85 -11 -40 c-6 -22 -14 -60 -19 -85 l-9 -45 -62 -1
c-34 -1 -65 2 -67 7 -4 6 34 199 70 356 4 19 13 22 58 25 28 2 66 2 82 1 17
-1 49 -2 73 -2z m387 -3 c2 -7 12 -42 22 -77 l18 -64 45 74 c40 66 49 74 79
77 41 4 40 0 -27 -100 -82 -124 -93 -146 -111 -221 l-16 -72 -69 -3 c-67 -3
-68 -2 -63 20 29 122 29 140 3 245 -14 56 -26 109 -26 117 0 13 13 16 70 16
48 0 72 -4 75 -12z m504 -22 c44 -42 57 -107 36 -188 -32 -125 -95 -178 -213
-178 -78 0 -126 19 -152 62 -18 28 -21 45 -17 108 8 159 86 233 239 228 69 -3
80 -6 107 -32z m264 27 c2 -5 -9 -64 -24 -133 -41 -179 -38 -200 26 -200 52 0
66 26 100 188 31 145 31 147 59 150 28 4 28 3 22 -40 -15 -102 -57 -265 -74
-287 -41 -56 -67 -66 -164 -66 -86 0 -91 1 -114 28 -17 20 -24 40 -24 68 0 34
41 249 55 287 5 13 131 18 138 5z m511 -17 c15 -9 32 -28 38 -42 17 -36 -8
-102 -48 -129 l-31 -21 29 -75 c46 -122 49 -110 -29 -107 l-68 3 -29 85 -30
85 -20 -85 -21 -85 -54 -3 c-29 -2 -59 -1 -66 2 -9 3 -2 52 27 188 21 100 41
189 43 197 8 21 223 11 259 -13z m522 5 l41 -19 -10 -56 -10 -56 -60 0 -59 0
6 43 c5 34 3 47 -10 58 -14 12 -19 10 -40 -14 -39 -45 -75 -203 -60 -262 14
-54 66 -14 90 68 4 13 17 17 61 17 30 0 55 -4 55 -10 0 -5 -5 -32 -11 -60 -14
-64 -44 -82 -149 -87 -121 -7 -179 37 -188 141 -8 103 48 201 138 240 50 22
155 20 206 -3z m329 -23 c12 -93 35 -305 35 -330 0 -28 0 -28 -69 -28 -76 0
-81 4 -81 66 l0 34 -55 0 -55 0 -25 -50 c-20 -40 -30 -50 -50 -50 -14 0 -25 5
-25 12 0 14 158 357 172 376 7 7 36 12 79 12 l68 0 6 -42z m412 15 c60 -44 44
-138 -31 -180 -16 -9 -15 -15 13 -86 43 -108 43 -107 -33 -107 l-64 0 -30 88
-29 87 -19 -85 -20 -85 -67 -3 c-37 -2 -67 -1 -67 2 0 17 80 378 86 387 4 8
43 10 120 7 95 -4 119 -8 141 -25z m-9907 -3 c0 -18 -7 -20 -64 -20 l-64 0
-11 -44 c-18 -74 -17 -76 39 -76 28 0 50 -3 50 -7 -1 -22 -20 -32 -65 -35
l-50 -3 -12 -50 c-20 -87 -21 -85 48 -85 52 0 60 -2 57 -17 -3 -16 -19 -18
-131 -21 l-128 -3 6 23 c3 13 19 88 35 168 17 80 33 155 37 168 5 21 9 22 129
22 117 0 124 -1 124 -20z m164 -12 c3 -18 9 -76 14 -128 l8 -95 64 128 c59
116 67 127 92 127 l27 0 -33 -72 c-18 -40 -57 -126 -87 -190 l-54 -117 -71 -1
-71 0 -6 78 c-4 42 -9 128 -13 190 l-7 112 66 0 66 0 5 -32z m502 16 c-3 -9
-6 -18 -6 -20 0 -2 -29 -4 -64 -4 l-63 0 -7 -37 c-3 -21 -9 -48 -12 -60 -6
-22 -3 -23 45 -23 44 0 51 -3 51 -19 0 -17 -8 -20 -52 -23 -51 -3 -53 -4 -64
-38 -6 -19 -14 -50 -17 -67 l-6 -33 59 0 c53 0 60 -2 60 -20 0 -19 -7 -20
-128 -20 l-129 0 33 153 c19 83 36 169 40 190 l7 37 129 0 c115 0 129 -2 124
-16z m308 5 c56 -26 59 -118 5 -163 -17 -14 -34 -26 -39 -26 -5 0 7 -39 26
-87 19 -49 34 -89 34 -91 0 -2 -30 -2 -67 0 l-67 3 -25 78 c-14 42 -28 77 -31
77 -4 0 -12 -30 -20 -67 -19 -98 -14 -93 -87 -93 -57 0 -64 2 -59 18 5 17 76
350 76 358 0 10 231 3 254 -7z m242 -59 c10 -38 21 -70 24 -70 3 0 23 30 44
66 41 69 51 78 86 72 19 -3 14 -14 -54 -118 -61 -94 -78 -129 -91 -187 l-16
-73 -66 0 c-63 0 -65 1 -59 23 29 109 29 130 -2 245 l-30 112 73 0 73 0 18
-70z m514 51 c0 -17 -8 -20 -52 -23 l-53 -3 -35 -165 -35 -165 -66 -3 -66 -3
33 153 c18 84 33 161 34 171 0 14 -9 17 -45 17 -43 0 -58 14 -38 33 3 4 78 7
165 7 150 0 158 -1 158 -19z m170 2 c0 -18 -16 -91 -26 -125 -4 -15 1 -18 34
-18 l39 0 17 80 18 80 64 0 c45 0 64 -4 64 -12 -1 -7 -18 -92 -39 -188 l-38
-175 -67 -3 -67 -3 7 28 c3 15 10 44 15 63 17 67 13 80 -25 80 -34 0 -34 0
-50 -69 -9 -39 -16 -77 -16 -85 0 -13 -13 -16 -69 -16 l-68 0 23 108 c13 59
31 144 40 190 l17 82 63 0 c54 0 64 -3 64 -17z m410 5 c-1 -7 -18 -92 -39
-188 l-38 -175 -67 -3 c-61 -3 -67 -1 -62 15 6 21 76 350 76 358 0 3 29 5 65
5 46 0 65 -4 65 -12z m240 -85 c44 -200 39 -197 73 -40 30 136 30 137 57 137
l28 0 -18 -82 c-10 -46 -28 -131 -40 -190 l-23 -108 -72 0 -73 0 -27 113 c-38
159 -36 153 -45 136 -4 -8 -18 -67 -30 -131 -24 -118 -24 -118 -53 -118 -22 0
-27 4 -23 18 5 18 76 351 76 358 0 2 33 4 74 4 l74 0 22 -97z m845 45 c8 -28
15 -57 15 -64 0 -34 22 -17 59 46 37 61 45 70 71 70 17 0 30 -3 30 -6 0 -3
-32 -55 -72 -116 -56 -86 -75 -125 -88 -181 l-17 -72 -67 -3 c-61 -3 -67 -1
-62 15 27 95 28 137 2 240 -14 56 -26 106 -26 112 0 7 27 11 70 11 l69 0 16
-52z m755 42 c0 -6 -14 -71 -30 -146 -35 -157 -32 -174 30 -174 58 0 72 26
105 190 l28 140 28 0 c16 0 29 -1 29 -3 0 -29 -65 -288 -77 -311 -10 -17 -39
-41 -63 -54 -38 -20 -56 -23 -118 -19 -59 3 -77 8 -97 27 -33 31 -33 70 1 233
l27 127 69 0 c39 0 68 -4 68 -10z m524 -7 c2 -10 14 -63 26 -118 12 -55 26
-106 29 -113 4 -7 15 21 24 65 9 43 22 102 28 131 10 49 13 52 41 52 23 0 28
-4 24 -17 -3 -10 -22 -96 -42 -190 l-37 -173 -73 0 c-61 0 -73 3 -78 18 -3 9
-17 69 -32 132 -30 130 -30 130 -64 -37 -23 -112 -23 -113 -52 -113 -15 0 -28
1 -28 3 0 1 18 86 40 187 22 101 40 186 40 187 0 2 33 3 74 3 63 0 75 -3 80
-17z m496 -3 c0 -18 -7 -20 -64 -20 -71 0 -70 0 -81 -74 l-7 -46 52 0 c43 0
51 -3 46 -16 -3 -9 -6 -20 -6 -25 0 -5 -24 -9 -54 -9 l-53 0 -12 -57 c-6 -31
-11 -60 -11 -65 0 -4 27 -8 61 -8 52 0 60 -2 57 -17 -3 -16 -19 -18 -131 -21
-98 -2 -127 0 -127 10 0 7 17 93 37 191 l37 177 128 0 c121 0 128 -1 128 -20z
m308 3 c-3 -15 -16 -19 -65 -21 l-62 -3 -10 -37 c-22 -89 -25 -82 34 -82 50 0
52 -1 47 -25 -4 -23 -9 -25 -57 -25 l-53 0 -11 -50 c-18 -81 -18 -80 49 -80
33 0 60 -2 60 -4 0 -2 -3 -11 -6 -20 -5 -13 -27 -16 -134 -16 l-128 0 18 83
c10 45 28 130 40 190 l23 107 129 0 c118 0 129 -2 126 -17z m319 -3 c92 -56
58 -275 -52 -337 -36 -20 -54 -23 -167 -23 -71 0 -128 1 -128 3 0 1 18 86 40
187 22 101 40 186 40 187 0 2 53 3 118 3 98 0 122 -3 149 -20z m513 0 c0 -18
-7 -20 -65 -20 l-64 0 -10 -37 c-19 -69 -17 -73 40 -73 43 0 50 -3 45 -16 -3
-9 -6 -20 -6 -24 0 -5 -24 -10 -52 -12 l-53 -3 -19 -87 -20 -88 -67 0 -67 0
18 83 c10 45 28 130 40 190 l23 107 128 0 c122 0 129 -1 129 -20z m-6838 -110
l108 0 0 -40 0 -40 -485 0 -485 0 0 40 0 39 153 4 c83 2 253 2 376 1 123 -2
273 -4 333 -4z m11520 0 l98 0 0 -40 0 -40 -480 0 -480 0 0 40 0 39 143 4 c78
2 250 3 381 1 132 -2 284 -4 338 -4z"/>
<path d="M13724 9036 c-49 -21 -131 -122 -178 -221 -74 -152 -139 -382 -171
-610 -18 -120 -19 -339 -4 -401 31 -120 133 -139 226 -42 104 109 208 385 265
708 30 169 33 477 5 527 -29 53 -78 67 -143 39z"/>
<path d="M15386 9013 c-10 -36 -156 -726 -156 -739 0 -21 141 -19 187 3 114
54 227 376 211 602 -9 122 -42 151 -175 151 -50 0 -63 -3 -67 -17z"/>
<path d="M5284 8800 c0 -140 2 -198 3 -127 2 70 2 184 0 255 -1 70 -3 12 -3
-128z"/>
<path d="M5284 8045 c0 -115 2 -161 3 -102 2 59 2 154 0 210 -1 56 -3 8 -3
-108z"/>
<path d="M8926 6969 c-39 -46 -76 -198 -62 -254 8 -30 36 -33 60 -6 38 42 77
231 56 270 -15 28 -24 26 -54 -10z"/>
<path d="M11670 6958 c-23 -38 -39 -91 -49 -163 -13 -94 16 -133 58 -79 30 38
53 124 55 203 1 61 -1 66 -21 69 -16 2 -28 -6 -43 -30z"/>
<path d="M12085 6978 c-5 -16 -24 -100 -25 -110 0 -5 11 -8 25 -8 51 0 77 121
27 128 -12 2 -24 -3 -27 -10z"/>
<path d="M12906 6968 c-32 -49 -49 -107 -54 -185 -4 -71 -2 -83 12 -89 10 -4
25 1 37 12 33 30 79 217 64 264 -8 27 -41 25 -59 -2z"/>
<path d="M13691 6940 c-15 -70 -14 -80 8 -80 23 0 39 19 51 61 13 45 4 69 -25
69 -20 0 -25 -7 -34 -50z"/>
<path d="M14538 6920 c-3 -8 -18 -41 -32 -72 l-26 -58 40 0 40 0 -1 43 c-2 59
-13 106 -21 87z"/>
<path d="M14957 6973 c-3 -10 -8 -31 -12 -48 -3 -16 -8 -38 -11 -47 -4 -14 1
-18 20 -18 35 0 58 38 54 87 -2 30 -7 39 -25 41 -14 2 -23 -3 -26 -15z"/>
<path d="M6035 6988 c-8 -24 -25 -103 -25 -120 0 -24 32 -23 54 1 10 11 21 36
26 56 7 30 5 40 -11 56 -22 22 -38 24 -44 7z"/>
<path d="M10849 6988 c0 -2 -15 -68 -33 -148 -31 -138 -31 -145 -14 -148 42
-8 78 57 98 176 15 91 9 122 -25 122 -14 0 -25 -1 -26 -2z"/>
</g>
</svg>
